<mxfile host="app.diagrams.net" modified="2023-03-19T14:25:19.806Z" agent="5.0 (Macintosh; Intel Mac OS X 10_15_7) AppleWebKit/537.36 (KHTML, like Gecko) Chrome/111.0.0.0 Safari/537.36" etag="vGQm1SNFG11TKEb6FBRk" version="21.0.8" type="github">
  <diagram id="C5RBs43oDa-KdzZeNtuy" name="Page-1">
    <mxGraphModel dx="1242" dy="682" grid="1" gridSize="10" guides="1" tooltips="1" connect="1" arrows="1" fold="1" page="1" pageScale="1" pageWidth="827" pageHeight="1169" math="0" shadow="0">
      <root>
        <mxCell id="WIyWlLk6GJQsqaUBKTNV-0" />
        <mxCell id="WIyWlLk6GJQsqaUBKTNV-1" parent="WIyWlLk6GJQsqaUBKTNV-0" />
        <mxCell id="KNsaAV9tmcQ1azo-75Oi-1" value="俊商汇" style="swimlane;whiteSpace=wrap;html=1;" vertex="1" parent="WIyWlLk6GJQsqaUBKTNV-1">
          <mxGeometry x="140" y="110" width="230" height="380" as="geometry" />
        </mxCell>
        <mxCell id="KNsaAV9tmcQ1azo-75Oi-14" style="edgeStyle=orthogonalEdgeStyle;rounded=0;orthogonalLoop=1;jettySize=auto;html=1;entryX=0.5;entryY=0;entryDx=0;entryDy=0;" edge="1" parent="KNsaAV9tmcQ1azo-75Oi-1" source="KNsaAV9tmcQ1azo-75Oi-3" target="KNsaAV9tmcQ1azo-75Oi-4">
          <mxGeometry relative="1" as="geometry" />
        </mxCell>
        <mxCell id="KNsaAV9tmcQ1azo-75Oi-3" value="开始" style="ellipse;whiteSpace=wrap;html=1;" vertex="1" parent="KNsaAV9tmcQ1azo-75Oi-1">
          <mxGeometry x="90" y="40" width="70" height="40" as="geometry" />
        </mxCell>
        <mxCell id="KNsaAV9tmcQ1azo-75Oi-4" value="查询本地14天内的订单" style="rounded=1;whiteSpace=wrap;html=1;" vertex="1" parent="KNsaAV9tmcQ1azo-75Oi-1">
          <mxGeometry x="82.5" y="120" width="85" height="40" as="geometry" />
        </mxCell>
        <mxCell id="KNsaAV9tmcQ1azo-75Oi-13" style="edgeStyle=orthogonalEdgeStyle;rounded=0;orthogonalLoop=1;jettySize=auto;html=1;entryX=0.5;entryY=0;entryDx=0;entryDy=0;" edge="1" parent="KNsaAV9tmcQ1azo-75Oi-1" source="KNsaAV9tmcQ1azo-75Oi-10" target="KNsaAV9tmcQ1azo-75Oi-12">
          <mxGeometry relative="1" as="geometry" />
        </mxCell>
        <mxCell id="KNsaAV9tmcQ1azo-75Oi-10" value="更新订单" style="rounded=1;whiteSpace=wrap;html=1;" vertex="1" parent="KNsaAV9tmcQ1azo-75Oi-1">
          <mxGeometry x="82.5" y="200" width="87.5" height="40" as="geometry" />
        </mxCell>
        <mxCell id="KNsaAV9tmcQ1azo-75Oi-12" value="结束" style="ellipse;whiteSpace=wrap;html=1;" vertex="1" parent="KNsaAV9tmcQ1azo-75Oi-1">
          <mxGeometry x="91.25" y="300" width="70" height="40" as="geometry" />
        </mxCell>
        <mxCell id="KNsaAV9tmcQ1azo-75Oi-2" value="业务系统" style="swimlane;whiteSpace=wrap;html=1;" vertex="1" parent="WIyWlLk6GJQsqaUBKTNV-1">
          <mxGeometry x="370" y="110" width="220" height="380" as="geometry" />
        </mxCell>
        <mxCell id="KNsaAV9tmcQ1azo-75Oi-9" style="edgeStyle=orthogonalEdgeStyle;rounded=0;orthogonalLoop=1;jettySize=auto;html=1;" edge="1" parent="KNsaAV9tmcQ1azo-75Oi-2" source="KNsaAV9tmcQ1azo-75Oi-6" target="KNsaAV9tmcQ1azo-75Oi-7">
          <mxGeometry relative="1" as="geometry" />
        </mxCell>
        <mxCell id="KNsaAV9tmcQ1azo-75Oi-6" value="根据订单号查询订单" style="rounded=1;whiteSpace=wrap;html=1;" vertex="1" parent="KNsaAV9tmcQ1azo-75Oi-2">
          <mxGeometry x="70" y="120" width="85" height="40" as="geometry" />
        </mxCell>
        <mxCell id="KNsaAV9tmcQ1azo-75Oi-7" value="返回订单" style="rounded=1;whiteSpace=wrap;html=1;" vertex="1" parent="KNsaAV9tmcQ1azo-75Oi-2">
          <mxGeometry x="70" y="200" width="85" height="40" as="geometry" />
        </mxCell>
        <mxCell id="KNsaAV9tmcQ1azo-75Oi-8" style="edgeStyle=orthogonalEdgeStyle;rounded=0;orthogonalLoop=1;jettySize=auto;html=1;" edge="1" parent="WIyWlLk6GJQsqaUBKTNV-1" source="KNsaAV9tmcQ1azo-75Oi-4" target="KNsaAV9tmcQ1azo-75Oi-6">
          <mxGeometry relative="1" as="geometry" />
        </mxCell>
        <mxCell id="KNsaAV9tmcQ1azo-75Oi-11" style="edgeStyle=orthogonalEdgeStyle;rounded=0;orthogonalLoop=1;jettySize=auto;html=1;entryX=1;entryY=0.5;entryDx=0;entryDy=0;" edge="1" parent="WIyWlLk6GJQsqaUBKTNV-1" source="KNsaAV9tmcQ1azo-75Oi-7" target="KNsaAV9tmcQ1azo-75Oi-10">
          <mxGeometry relative="1" as="geometry" />
        </mxCell>
      </root>
    </mxGraphModel>
  </diagram>
</mxfile>
